<?xml version="1.0" standalone="no"?>
<!DOCTYPE svg PUBLIC "-//W3C//DTD SVG 20010904//EN"
 "http://www.w3.org/TR/2001/REC-SVG-20010904/DTD/svg10.dtd">
<svg version="1.0" xmlns="http://www.w3.org/2000/svg"
 width="512.000000pt" height="512.000000pt" viewBox="0 0 512.000000 512.000000"
 preserveAspectRatio="xMidYMid meet">

<g transform="translate(0.000000,512.000000) scale(0.100000,-0.100000)"
fill="#000000" stroke="none">
<path d="M756 4865 c-127 -49 -212 -196 -251 -438 -53 -326 -7 -919 110 -1406
19 -79 35 -145 35 -147 0 -2 -27 -1 -59 2 -55 6 -61 5 -85 -19 l-26 -26 0
-1271 0 -1271 25 -24 24 -25 2031 0 2031 0 24 25 25 24 0 1271 0 1271 -26 26
c-23 23 -31 25 -85 20 -36 -3 -76 -15 -105 -31 -26 -14 -48 -26 -49 -26 -2 0
2 19 8 43 6 23 11 112 10 197 0 139 -3 164 -27 245 -85 282 -287 427 -533 382
-26 -4 -43 -3 -43 2 0 22 70 98 110 121 36 20 63 25 138 28 84 4 94 7 112 30
27 33 25 65 -4 99 -21 25 -31 28 -100 31 -173 9 -327 -84 -401 -240 l-22 -47
-34 35 c-19 19 -67 52 -107 71 -62 31 -86 37 -156 41 -87 5 -164 -11 -236 -48
l-36 -19 -58 65 c-61 68 -152 138 -228 175 l-48 23 0 93 c0 77 3 93 15 93 9 0
27 11 40 25 25 24 25 26 25 215 0 189 0 191 -25 215 l-24 25 -351 0 -351 0
-24 -25 c-25 -24 -25 -26 -25 -215 0 -189 0 -191 25 -215 13 -14 31 -25 40
-25 12 0 15 -16 15 -93 l0 -93 -57 -28 c-103 -50 -233 -166 -286 -253 -10 -18
-22 -33 -25 -33 -4 0 -27 51 -51 113 -68 172 -231 488 -323 627 -108 163 -253
313 -350 360 -80 39 -171 48 -232 25z m165 -170 c192 -98 478 -569 674 -1114
23 -63 25 -76 15 -133 -5 -35 -10 -202 -10 -372 l0 -310 -32 32 c-54 51 -122
77 -208 77 -100 0 -165 -30 -245 -114 -71 -74 -100 -91 -155 -91 -82 0 -92 13
-134 166 -106 383 -167 777 -182 1174 -13 339 40 603 136 684 40 33 77 33 141
1z m1719 -215 l0 -80 -240 0 -240 0 0 80 0 80 240 0 240 0 0 -80z m-80 -373
c0 -153 5 -165 77 -192 80 -30 155 -80 221 -149 34 -35 62 -67 62 -71 0 -4
-20 -30 -43 -58 -204 -243 -298 -597 -236 -887 9 -40 8 -47 -12 -62 -26 -22
-99 -24 -137 -4 -15 8 -53 42 -85 76 -80 85 -146 115 -252 114 -104 0 -158
-26 -245 -115 -69 -71 -95 -89 -130 -89 l-21 0 3 393 c4 372 5 395 26 457 59
178 198 326 364 390 85 33 88 41 88 196 l0 134 160 0 160 0 0 -133z m848 -431
c61 -31 127 -103 157 -170 18 -40 31 -56 56 -66 29 -12 36 -11 68 8 115 68
154 82 231 82 65 0 82 -4 126 -30 186 -106 249 -467 134 -773 -16 -43 -26 -57
-41 -57 -34 0 -72 26 -132 90 -80 85 -146 115 -252 114 -105 0 -158 -26 -245
-115 -76 -78 -94 -89 -150 -89 -55 0 -72 10 -160 95 -92 88 -142 110 -250 110
-58 -1 -85 -6 -117 -23 l-42 -22 -6 55 c-10 73 11 230 42 330 45 144 122 273
210 355 76 72 88 80 150 106 79 32 158 32 221 0z m-1994 -966 c14 -5 56 -40
93 -78 98 -100 135 -117 253 -117 118 0 154 17 257 121 115 115 171 115 286 0
103 -104 139 -121 257 -121 118 0 155 17 253 117 37 38 79 73 93 78 67 26 139
-4 210 -87 22 -26 65 -62 95 -78 49 -27 62 -30 149 -30 87 0 100 3 149 30 30
16 72 52 95 78 22 27 49 53 58 58 17 9 18 -43 18 -1136 l0 -1145 -1520 0
-1520 0 0 1146 c0 1070 1 1146 17 1133 9 -8 39 -37 67 -64 77 -77 132 -100
236 -100 111 0 157 22 251 115 39 39 81 75 93 80 29 12 79 12 110 0z m2504
-91 c22 -25 65 -59 94 -75 48 -26 62 -29 148 -29 87 0 100 3 149 30 30 16 74
53 99 82 25 29 51 54 58 57 12 5 14 -181 14 -1139 l0 -1145 -320 0 -320 0 0
1146 c0 1099 1 1145 18 1132 10 -7 37 -34 60 -59z"/>
<path d="M1057 4318 c-23 -18 -220 -596 -212 -625 15 -59 87 -82 129 -40 30
30 220 594 210 623 -13 37 -36 54 -74 54 -20 0 -44 -6 -53 -12z"/>
<path d="M1242 3617 c-23 -24 -212 -569 -212 -611 0 -56 90 -91 130 -50 24 24
210 565 210 610 0 64 -84 98 -128 51z"/>
</g>
</svg>
