<?xml version="1.0" standalone="no"?>
<!DOCTYPE svg PUBLIC "-//W3C//DTD SVG 20010904//EN"
 "http://www.w3.org/TR/2001/REC-SVG-20010904/DTD/svg10.dtd">
<svg version="1.0" xmlns="http://www.w3.org/2000/svg"
 width="512.000000pt" height="512.000000pt" viewBox="0 0 512.000000 512.000000"
 preserveAspectRatio="xMidYMid meet">

<g transform="translate(0.000000,512.000000) scale(0.100000,-0.100000)"
fill="#000000" stroke="none">
<path d="M3422 5109 c-73 -12 -164 -44 -230 -81 -77 -43 -220 -188 -258 -260
-16 -32 -32 -58 -36 -58 -3 0 -17 17 -29 38 -63 102 -257 262 -319 262 -17 0
-58 -20 -103 -50 -209 -140 -337 -375 -337 -619 l0 -79 -70 24 c-103 35 -218
47 -318 35 -168 -21 -192 -37 -217 -145 -16 -70 -21 -216 -9 -284 22 -130 82
-260 169 -364 l55 -66 -322 -4 c-318 -4 -324 -5 -413 -32 -286 -87 -497 -297
-584 -580 -12 -38 -26 -119 -31 -180 -6 -63 -10 -505 -10 -1018 l0 -907 -151
-3 -151 -3 -29 -33 c-23 -26 -29 -41 -29 -80 1 -147 75 -318 185 -427 80 -80
151 -125 257 -163 l73 -27 2045 0 2045 0 73 27 c168 61 298 173 370 319 48 97
76 211 69 283 -4 40 -11 55 -36 78 -31 27 -34 28 -151 28 l-120 0 0 908 c0
512 -4 955 -10 1018 -5 61 -19 142 -31 180 -87 283 -298 493 -584 580 -89 27
-95 28 -433 33 l-344 6 37 48 c46 60 99 175 114 245 16 75 14 214 -4 282 -41
157 -134 289 -267 379 -53 35 -186 91 -217 91 -27 0 -26 5 4 85 29 79 68 137
127 191 86 80 165 114 308 133 88 12 120 38 120 97 0 90 -61 117 -208 93z
m-815 -364 c55 -48 108 -123 141 -197 l20 -47 -50 -17 c-70 -23 -188 -105
-247 -171 -27 -31 -65 -85 -84 -121 -39 -74 -45 -71 -66 26 -38 182 17 369
149 503 37 38 71 69 76 69 5 0 32 -20 61 -45z m514 -462 c74 -34 167 -120 197
-181 42 -82 55 -141 50 -231 -3 -71 -10 -99 -35 -154 -107 -227 -369 -318
-591 -205 -67 34 -149 114 -181 177 -101 198 -44 434 135 557 84 58 143 74
259 71 88 -2 108 -6 166 -34z m-1168 -180 c183 -53 330 -206 377 -389 19 -75
26 -177 14 -221 -5 -18 -16 -23 -62 -29 -138 -17 -318 46 -421 148 -122 119
-166 224 -166 393 l0 110 35 7 c48 9 160 0 223 -19z m2132 -858 c180 -38 356
-170 444 -334 58 -109 71 -183 71 -401 l-1 -195 -92 -62 c-109 -73 -132 -83
-198 -83 -67 0 -94 13 -249 119 -164 112 -231 137 -349 128 -103 -7 -143 -24
-306 -133 -159 -106 -177 -114 -246 -114 -67 0 -92 12 -249 119 -150 102 -222
131 -325 131 -102 0 -171 -28 -322 -130 -158 -107 -185 -120 -253 -120 -68 0
-94 12 -250 119 -164 112 -231 137 -349 128 -103 -7 -143 -24 -300 -129 -156
-105 -183 -118 -250 -118 -66 0 -89 10 -199 83 l-92 62 3 215 c2 118 7 223 11
233 8 16 39 17 456 17 261 0 459 4 474 10 61 23 79 112 32 159 l-26 26 -415 3
c-228 1 -415 6 -415 11 0 5 35 42 79 84 89 85 204 148 311 171 99 22 2903 22
3005 1z m-2575 -1038 c19 -7 93 -53 165 -101 184 -125 196 -130 335 -130 140
0 154 5 349 138 213 144 239 144 467 -9 183 -122 235 -141 366 -132 106 6 148
25 304 133 143 98 176 114 239 114 63 0 96 -16 239 -114 68 -47 145 -95 172
-107 96 -42 279 -34 359 15 11 7 37 22 58 35 l37 23 0 -666 0 -666 -810 0
c-704 0 -815 -2 -840 -15 -35 -18 -50 -43 -50 -85 0 -42 15 -67 50 -85 25 -13
153 -15 994 -15 l965 0 -16 -46 c-32 -95 -122 -198 -215 -245 -100 -51 -3 -49
-2118 -49 -2115 0 -2018 -2 -2118 49 -93 47 -183 150 -215 245 l-16 46 965 0
c1037 0 1006 -1 1034 49 13 25 13 77 0 102 -27 50 -12 49 -855 49 l-785 0 0
666 0 665 43 -26 c85 -53 129 -67 223 -72 130 -8 177 9 349 126 77 52 156 100
175 107 44 17 105 17 150 1z"/>
<path d="M1825 2971 c-62 -26 -81 -110 -34 -156 14 -14 42 -28 62 -32 32 -5
41 -1 72 30 22 22 35 45 35 61 0 75 -68 124 -135 97z"/>
<path d="M2498 711 c-67 -60 -28 -166 62 -166 90 0 129 106 62 166 -20 18 -43
29 -62 29 -19 0 -42 -11 -62 -29z"/>
</g>
</svg>
