<?xml version="1.0" standalone="no"?>
<!DOCTYPE svg PUBLIC "-//W3C//DTD SVG 20010904//EN"
 "http://www.w3.org/TR/2001/REC-SVG-20010904/DTD/svg10.dtd">
<svg version="1.0" xmlns="http://www.w3.org/2000/svg"
 width="512.000000pt" height="512.000000pt" viewBox="0 0 512.000000 512.000000"
 preserveAspectRatio="xMidYMid meet">

<g transform="translate(0.000000,512.000000) scale(0.100000,-0.100000)"
fill="#000000" stroke="none">
<path d="M2875 5106 c-58 -25 -105 -103 -105 -173 0 -21 -3 -20 -52 17 -113
86 -259 100 -382 38 -60 -31 -133 -105 -163 -167 -25 -50 -28 -67 -28 -156 0
-112 16 -157 81 -234 25 -29 32 -42 22 -46 -7 -3 -96 -19 -198 -35 -217 -36
-309 -60 -406 -106 -175 -83 -326 -250 -391 -436 -38 -105 -37 -242 1 -348 15
-41 29 -82 32 -90 3 -10 -13 -25 -48 -45 -28 -16 -88 -66 -133 -110 -169 -166
-212 -345 -132 -543 l24 -60 -56 -23 c-71 -29 -131 -90 -161 -162 -20 -47 -28
-57 -48 -57 -35 0 -78 -29 -99 -67 -17 -32 -16 -40 135 -1009 88 -563 161
-997 172 -1025 39 -104 128 -193 240 -241 l55 -23 1304 -3 c1427 -3 1366 -5
1469 55 88 51 165 151 194 248 20 69 308 1951 303 1977 -9 37 -68 88 -104 88
-24 0 -30 7 -50 55 -12 30 -41 73 -63 95 -41 44 -127 90 -165 90 -28 0 -28 2
-1 70 17 44 21 75 21 160 -1 257 -107 443 -341 600 -21 15 -22 16 -7 64 36
119 11 325 -57 464 -40 83 -177 225 -260 271 -55 31 -57 34 -50 64 4 18 7 95
7 172 0 127 -3 147 -27 213 -51 141 -141 256 -267 342 -125 84 -199 105 -266
76z m143 -183 c143 -87 239 -222 264 -370 14 -87 0 -235 -29 -288 -30 -56
-152 -192 -248 -277 -232 -205 -475 -322 -825 -399 -146 -33 -176 -46 -186
-83 -8 -33 21 -84 52 -92 47 -12 340 58 509 121 271 102 531 283 722 505 42
49 80 90 83 90 4 0 33 -17 66 -38 160 -104 243 -273 232 -474 -6 -104 -35
-165 -111 -234 -197 -180 -572 -266 -1487 -339 -309 -25 -457 -55 -605 -124
-100 -47 -192 -117 -252 -190 -25 -31 -51 -56 -57 -56 -6 0 -22 27 -35 60 -99
246 108 480 517 586 64 16 124 37 133 45 23 20 29 70 12 94 -34 48 -59 47
-242 -7 -46 -13 -89 -22 -96 -19 -23 8 -55 125 -55 198 0 176 128 367 310 462
85 45 209 77 425 111 93 15 208 38 254 52 302 87 495 310 552 638 6 38 16 65
23 65 7 0 40 -17 74 -37z m843 -1733 c116 -135 163 -351 105 -476 -42 -89 -55
-94 -267 -94 -174 0 -184 -1 -206 -22 -13 -12 -23 -27 -23 -33 0 -16 -46 -25
-121 -25 -49 0 -59 3 -64 20 -4 12 -16 30 -28 40 -20 20 -40 20 -986 20 l-966
1 58 54 c75 69 189 128 308 160 101 27 213 40 669 81 476 41 739 86 968 166
156 53 258 108 334 178 l63 58 59 -41 c32 -23 76 -62 97 -87z m-2358 -976 c18
-9 55 -38 84 -64 81 -74 132 -95 228 -94 98 1 133 16 221 90 80 68 109 84 152
84 44 0 86 -23 149 -80 81 -74 132 -95 228 -95 98 1 140 19 239 105 109 94
164 94 271 0 97 -85 142 -105 240 -105 98 0 140 18 239 105 109 94 163 94 272
0 100 -87 141 -105 239 -105 97 0 146 20 223 90 29 26 54 46 56 44 6 -7 -281
-1825 -294 -1865 -7 -20 -36 -61 -64 -90 -61 -62 -121 -84 -232 -84 l-73 0 5
33 c8 56 154 1635 154 1667 0 43 -32 72 -77 68 -70 -6 -64 32 -148 -873 -41
-451 -78 -837 -81 -857 l-6 -38 -184 0 -185 0 6 88 c3 48 22 433 41 857 34
755 34 770 16 795 -30 40 -101 40 -122 0 -8 -14 -88 -1559 -90 -1732 0 -5 -83
-8 -185 -8 l-185 0 0 862 0 862 -22 23 c-27 29 -80 31 -108 3 -20 -20 -20 -33
-20 -885 l0 -865 -184 0 -184 0 -6 93 c-4 50 -22 437 -41 859 -19 422 -38 774
-41 783 -15 39 -91 48 -124 13 -11 -12 -20 -32 -20 -45 0 -39 69 -1542 74
-1625 l5 -78 -184 0 -184 0 -5 33 c-3 17 -40 403 -81 857 -41 454 -81 843 -88
865 -14 46 -50 65 -94 49 -57 -20 -58 11 31 -931 l82 -873 -71 0 c-39 0 -95 7
-124 16 -64 19 -136 81 -163 141 -13 29 -67 349 -163 960 -79 505 -142 919
-140 922 2 2 28 -18 57 -44 78 -71 126 -90 223 -89 95 0 147 23 237 103 31 28
67 55 80 60 36 15 86 13 121 -5z"/>
</g>
</svg>
