<?xml version="1.0" standalone="no"?>
<!DOCTYPE svg PUBLIC "-//W3C//DTD SVG 20010904//EN"
 "http://www.w3.org/TR/2001/REC-SVG-20010904/DTD/svg10.dtd">
<svg version="1.0" xmlns="http://www.w3.org/2000/svg"
 width="512.000000pt" height="512.000000pt" viewBox="0 0 512.000000 512.000000"
 preserveAspectRatio="xMidYMid meet">

<g transform="translate(0.000000,512.000000) scale(0.100000,-0.100000)"
fill="#000000" stroke="none">
<path d="M2124 5104 c-17 -8 -86 -71 -153 -139 -117 -118 -122 -125 -119 -161
4 -48 43 -80 84 -70 17 5 73 51 137 114 61 60 111 102 115 97 42 -59 70 -112
95 -180 29 -75 31 -89 31 -220 1 -112 -3 -151 -18 -195 -77 -225 -227 -377
-441 -447 -66 -22 -99 -26 -195 -27 -151 -1 -260 31 -383 112 l-38 25 251 252
c236 237 250 254 250 288 0 47 -28 77 -72 77 -29 0 -61 -29 -296 -262 -145
-145 -270 -275 -278 -290 -17 -33 -18 -95 -1 -126 34 -61 217 -167 353 -203
111 -31 306 -31 416 -1 282 77 509 302 585 582 25 92 25 329 0 420 -23 86 -84
212 -136 280 -64 85 -120 107 -187 74z"/>
<path d="M3354 5104 c-16 -8 -37 -27 -46 -42 -9 -15 -48 -147 -87 -293 -67
-249 -70 -269 -59 -305 15 -45 67 -84 111 -84 30 0 495 120 550 142 31 12 61
50 70 89 9 35 -26 168 -60 232 -62 115 -207 228 -338 262 -73 19 -102 19 -141
-1z m182 -175 c66 -31 140 -109 174 -181 17 -35 30 -70 30 -79 0 -13 -22 -23
-82 -39 -46 -12 -139 -37 -208 -56 -68 -18 -126 -31 -129 -29 -3 4 47 200 95
372 15 51 15 51 45 43 17 -5 51 -19 75 -31z"/>
<path d="M1974 4588 c-22 -10 -44 -47 -44 -74 0 -8 11 -26 25 -39 22 -22 32
-25 105 -25 94 0 120 16 120 74 0 54 -36 76 -119 75 -36 0 -76 -5 -87 -11z"/>
<path d="M2704 4456 c-66 -29 -190 -233 -234 -386 -36 -123 -38 -385 -4 -473
3 -8 -9 -18 -31 -26 -40 -14 -143 -105 -164 -145 -8 -14 -17 -26 -20 -26 -4 0
-31 19 -61 41 -67 51 -175 103 -255 124 -84 21 -209 19 -286 -5 l-63 -19 -46
29 c-153 98 -353 134 -533 94 -40 -9 -115 -36 -167 -61 -79 -38 -108 -59 -180
-132 -152 -151 -217 -319 -208 -534 6 -132 34 -226 100 -337 39 -65 157 -193
200 -216 16 -9 16 -13 -3 -74 -25 -78 -21 -166 11 -237 11 -25 20 -47 20 -49
0 -2 -45 -4 -100 -4 -112 0 -150 -11 -192 -56 -54 -59 -59 -113 -29 -319 104
-697 530 -1273 1171 -1584 l115 -56 775 0 775 0 75 34 c278 124 554 333 748
566 277 331 457 772 479 1165 7 137 -5 175 -70 218 -36 24 -53 28 -146 32 -85
4 -106 8 -109 21 -2 11 12 19 49 28 148 38 296 154 337 264 44 116 19 227 -71
320 -29 29 -64 62 -79 73 l-27 19 44 58 c91 119 138 256 138 397 0 159 -63
286 -183 368 l-65 44 -7 62 c-10 84 -55 218 -89 266 -24 34 -35 40 -64 40 -41
0 -75 -29 -75 -64 0 -13 13 -52 30 -87 26 -56 57 -166 48 -174 -1 -2 -25 -5
-52 -6 l-49 -4 -17 60 c-30 108 -82 185 -171 250 -79 58 -166 85 -273 85 -111
-1 -200 -34 -299 -112 l-27 -22 -38 37 -37 38 40 34 c150 129 379 170 560 100
100 -39 129 -41 154 -16 26 26 28 82 3 104 -10 9 -42 27 -72 40 -240 106 -535
60 -743 -115 l-49 -41 -181 181 c-207 206 -229 220 -303 188z m381 -476 c175
-175 317 -321 315 -323 -3 -2 -27 -12 -55 -22 -102 -38 -219 -191 -256 -335
-11 -44 -16 -50 -34 -45 -11 3 -47 8 -80 11 l-60 7 -37 76 c-50 103 -113 172
-193 212 l-64 31 -15 69 c-35 151 -13 343 54 486 31 67 86 153 98 153 4 0 151
-144 327 -320z m723 -105 c96 -40 157 -108 186 -205 9 -29 16 -55 16 -57 0 -2
-24 -14 -52 -27 -29 -13 -77 -40 -107 -60 -29 -20 -56 -36 -60 -36 -3 0 -75
69 -160 154 l-153 153 38 31 c21 18 56 38 79 46 54 20 167 20 213 1z m-2514
-360 c32 -8 82 -27 111 -41 l54 -25 -31 -44 c-33 -46 -42 -52 -53 -35 -13 21
-138 50 -215 50 -231 0 -418 -161 -450 -389 -24 -170 55 -346 198 -441 26 -17
45 -34 43 -38 -3 -4 -22 -20 -44 -35 l-38 -28 -34 21 c-90 56 -188 198 -220
320 -19 72 -19 200 0 275 51 200 213 361 411 409 79 19 196 19 268 1z m2244
-33 c50 -33 86 -79 118 -149 25 -55 55 -83 90 -83 14 0 51 28 98 75 194 189
445 227 588 88 139 -135 101 -397 -84 -585 -99 -101 -100 -136 -5 -184 123
-63 187 -132 187 -203 0 -42 -31 -102 -72 -136 -50 -43 -164 -92 -253 -110
-44 -9 -88 -23 -97 -32 -22 -20 -23 -74 -3 -113 12 -23 12 -30 3 -30 -7 0
-120 107 -250 237 l-238 238 222 222 c194 194 221 225 221 253 0 41 -32 73
-73 73 -28 0 -59 -27 -253 -221 l-222 -221 -185 183 c-196 195 -217 209 -287
191 -41 -10 -112 -91 -168 -191 l-49 -88 -15 45 c-8 25 -14 88 -15 149 -1 94
2 110 24 150 33 59 78 83 146 76 28 -2 70 -14 92 -25 51 -26 103 -27 125 -3 9
9 23 53 32 97 18 89 67 203 110 253 62 74 144 91 213 44z m-902 -63 c39 -24
75 -69 110 -142 l27 -55 -41 -47 c-55 -63 -83 -139 -89 -246 -6 -93 13 -213
47 -299 l19 -49 -52 23 c-71 32 -173 56 -232 56 l-49 0 -161 160 c-141 139
-165 160 -193 160 -42 0 -72 -31 -72 -72 0 -28 16 -49 117 -150 100 -100 114
-118 97 -124 -205 -74 -343 -192 -431 -371 -26 -51 -51 -93 -57 -93 -25 0
-116 62 -149 101 -89 103 -45 211 122 298 118 61 120 83 16 193 -154 164 -207
354 -142 510 40 94 128 149 253 156 143 8 270 -47 397 -172 96 -94 129 -91
182 15 81 160 179 211 281 148z m-1345 -176 c47 -24 54 -32 54 -57 0 -28 -3
-30 -61 -42 -171 -35 -277 -160 -292 -345 l-7 -82 -32 27 c-18 15 -47 56 -64
92 -59 119 -37 256 56 349 59 58 126 85 216 85 63 0 85 -5 130 -27z m85 -295
c24 -75 55 -134 109 -207 44 -59 46 -65 29 -74 -42 -23 -128 -115 -152 -162
-38 -72 -38 -178 0 -255 36 -73 108 -142 199 -190 l74 -39 -332 -1 -331 0 -26
31 c-39 46 -56 84 -63 139 -13 115 86 221 245 260 48 12 77 47 69 83 -3 12
-17 54 -31 92 -28 76 -34 162 -15 228 20 73 110 146 181 147 23 0 29 -6 44
-52z m1838 -362 c-88 -160 -82 -362 16 -518 l29 -48 -89 0 c-78 0 -90 2 -90
17 0 75 -71 253 -134 335 l-36 47 16 78 c17 85 67 201 117 275 l32 48 87 -87
86 -86 -34 -61z m400 -305 c191 -191 244 -250 231 -255 -9 -3 -95 -6 -190 -6
l-173 0 -52 47 c-96 86 -137 185 -127 302 5 64 38 161 54 161 5 0 120 -112
257 -249z m-1093 213 c191 -56 345 -213 394 -401 8 -31 15 -61 15 -65 0 -4
-24 -8 -54 -8 -53 0 -54 0 -60 34 -4 19 -22 66 -41 104 -87 173 -289 276 -476
243 -175 -32 -317 -157 -363 -320 l-17 -61 -53 0 -53 0 8 43 c37 198 204 379
400 431 74 20 232 20 300 0z m-14 -269 c28 -14 68 -44 88 -67 35 -38 82 -125
72 -134 -2 -2 -138 -3 -301 -2 l-297 3 31 62 c42 84 112 140 205 164 50 13
146 1 202 -26z m1937 -445 c-1 -47 -7 -118 -13 -157 l-13 -73 -367 0 c-356 0
-368 -1 -389 -20 -30 -28 -30 -82 0 -110 21 -19 33 -20 369 -20 l348 0 -13
-42 c-47 -153 -140 -345 -236 -487 -196 -292 -459 -521 -775 -673 l-100 -48
-733 0 -733 0 -120 60 c-372 185 -665 469 -858 831 -52 98 -123 270 -136 327
l-7 32 1354 0 c1349 0 1354 0 1376 20 14 14 22 33 22 55 0 22 -8 41 -22 55
-22 20 -27 20 -1394 20 -812 0 -1375 4 -1378 9 -11 17 -40 276 -33 294 6 16
115 17 1929 15 l1923 -3 -1 -85z"/>
<path d="M2781 3874 c-24 -30 -26 -43 -10 -77 16 -35 49 -47 129 -47 86 0 124
25 122 81 -1 55 -28 69 -132 69 -84 0 -90 -1 -109 -26z"/>
<path d="M3024 3615 c-44 -18 -124 -111 -124 -144 0 -38 38 -71 80 -71 28 0
44 10 92 60 59 60 70 89 48 130 -15 28 -61 40 -96 25z"/>
<path d="M1855 4337 c-46 -39 -39 -77 25 -142 46 -47 60 -55 91 -55 44 0 72
28 72 71 0 24 -12 42 -54 84 -67 66 -96 75 -134 42z"/>
<path d="M1600 4240 c-17 -17 -20 -33 -20 -104 0 -79 2 -86 26 -105 30 -24 43
-26 78 -10 35 16 49 58 44 135 -3 55 -8 70 -27 85 -30 25 -76 24 -101 -1z"/>
</g>
</svg>
