<?xml version="1.0" standalone="no"?>
<!DOCTYPE svg PUBLIC "-//W3C//DTD SVG 20010904//EN"
 "http://www.w3.org/TR/2001/REC-SVG-20010904/DTD/svg10.dtd">
<svg version="1.0" xmlns="http://www.w3.org/2000/svg"
 width="512.000000pt" height="512.000000pt" viewBox="0 0 512.000000 512.000000"
 preserveAspectRatio="xMidYMid meet">

<g transform="translate(0.000000,512.000000) scale(0.100000,-0.100000)"
fill="#000000" stroke="none">
<path d="M463 5106 c-142 -35 -266 -137 -330 -273 -34 -70 -38 -88 -41 -176
-5 -121 14 -202 68 -285 68 -105 92 -123 401 -305 174 -102 292 -189 347 -255
l41 -48 -45 -65 c-57 -81 -100 -171 -114 -237 -22 -99 -36 -81 470 -587 253
-253 460 -464 460 -470 0 -5 -353 -363 -785 -795 -745 -745 -786 -788 -815
-852 -66 -147 -57 -314 24 -453 31 -52 131 -147 181 -172 157 -79 335 -75 479
11 23 14 390 374 816 800 426 427 779 776 785 776 6 0 217 -207 470 -460 506
-506 488 -492 588 -470 70 15 124 40 222 104 l85 55 67 -67 c82 -81 138 -162
272 -392 122 -208 153 -250 229 -307 96 -72 147 -88 292 -88 124 0 126 0 203
37 207 99 321 323 276 540 -26 124 -108 243 -218 317 -31 21 -114 71 -186 111
-225 127 -371 234 -426 311 l-21 30 50 77 c91 139 122 228 107 309 -6 33 -49
81 -323 355 -174 175 -314 320 -311 322 3 3 50 24 104 47 212 88 450 216 600
322 336 239 504 463 586 782 21 79 24 113 23 270 -1 160 -4 190 -26 276 -97
360 -307 627 -613 779 -446 221 -1004 131 -1353 -218 -207 -207 -465 -622
-577 -927 -10 -27 -20 -52 -22 -54 -2 -3 -146 137 -321 311 -213 213 -326 319
-345 324 -76 18 -182 -18 -319 -107 l-77 -51 -30 21 c-80 58 -173 186 -331
461 -113 197 -190 283 -292 329 -112 51 -218 63 -325 37z m252 -188 c79 -41
117 -88 236 -292 130 -223 200 -324 287 -414 l63 -66 -118 -120 c-65 -66 -119
-122 -121 -125 -1 -2 -33 26 -70 62 -90 90 -182 155 -402 282 -232 135 -260
158 -302 242 -28 58 -33 77 -33 143 1 59 6 86 26 130 40 84 117 151 209 181
50 17 172 4 225 -23z m3422 -7 c137 -28 138 -33 26 -64 -351 -96 -717 -395
-1082 -880 -157 -210 -331 -484 -595 -937 -91 -156 -166 -281 -166 -278 0 13
315 902 357 1008 110 278 288 587 453 783 217 259 476 385 795 386 81 1 150
-5 212 -18z m372 -202 c28 -6 53 -14 55 -18 3 -4 -483 -495 -1078 -1090 -596
-596 -1086 -1079 -1089 -1074 -5 8 245 446 422 738 247 406 443 681 654 915
336 372 760 588 1036 529z m205 -319 c0 -105 -3 -123 -33 -205 -43 -116 -107
-243 -167 -331 -225 -329 -601 -644 -1204 -1007 -186 -111 -765 -437 -777
-437 -5 0 478 486 1072 1080 l1080 1080 15 -32 c10 -23 14 -68 14 -148z m197
-253 c25 -122 25 -292 0 -413 -98 -477 -496 -800 -1406 -1144 -218 -82 -796
-282 -802 -277 -2 2 104 64 234 137 763 427 1158 702 1470 1023 149 153 264
305 337 446 55 108 107 244 120 316 7 33 9 37 18 21 5 -9 18 -59 29 -109z
m-2800 -214 l327 -328 -172 -487 c-95 -268 -175 -490 -178 -493 -3 -4 -34 -13
-69 -21 -35 -8 -87 -27 -115 -43 l-52 -28 -453 453 -452 452 46 94 c110 225
518 624 724 707 26 11 53 20 58 20 6 1 157 -146 336 -326z m126 -1504 c72 -28
144 -94 174 -162 33 -74 33 -192 0 -260 -23 -47 -115 -157 -131 -157 -4 0 -17
26 -29 58 -59 164 -217 315 -379 363 l-43 12 38 40 c115 118 240 154 370 106z
m1692 -313 c370 -370 343 -324 265 -456 -145 -242 -500 -581 -711 -677 l-55
-26 -454 454 -453 453 20 32 c25 42 59 140 59 174 0 26 7 29 330 139 182 62
401 139 488 171 86 32 164 59 172 59 8 1 161 -145 339 -323z m-2054 -27 c117
-54 222 -190 233 -299 10 -111 40 -75 -531 -648 -287 -288 -535 -530 -551
-539 -45 -23 -139 -14 -211 22 -78 38 -168 128 -202 202 -34 73 -41 157 -19
204 9 19 249 267 534 552 403 403 527 521 558 532 51 19 113 10 189 -26z
m2295 -799 c16 -29 164 -150 260 -212 47 -30 151 -92 232 -138 162 -91 215
-135 255 -213 24 -45 28 -63 28 -142 0 -79 -4 -97 -27 -142 -61 -115 -162
-177 -288 -178 -66 0 -85 5 -143 33 -84 42 -107 70 -242 302 -129 222 -194
314 -280 400 l-65 65 122 122 c68 68 126 123 130 123 4 0 12 -9 18 -20z
m-3698 -548 c65 -137 201 -254 352 -302 l38 -12 -48 -50 c-55 -56 -147 -104
-215 -113 -101 -14 -229 43 -288 128 -92 134 -73 293 51 423 51 54 53 55 61
32 5 -13 27 -60 49 -106z"/>
</g>
</svg>
