<?xml version="1.0" standalone="no"?>
<!DOCTYPE svg PUBLIC "-//W3C//DTD SVG 20010904//EN"
 "http://www.w3.org/TR/2001/REC-SVG-20010904/DTD/svg10.dtd">
<svg version="1.0" xmlns="http://www.w3.org/2000/svg"
 width="512.000000pt" height="512.000000pt" viewBox="0 0 512.000000 512.000000"
 preserveAspectRatio="xMidYMid meet">

<g transform="translate(0.000000,512.000000) scale(0.100000,-0.100000)"
fill="#000000" stroke="none">
<path d="M3382 5015 c-99 -31 -176 -108 -202 -205 -6 -22 -11 -24 -49 -21 -75
5 -118 -64 -73 -118 9 -12 46 -33 82 -46 59 -22 80 -39 238 -192 l172 -168
-41 -135 c-22 -74 -42 -136 -43 -138 -2 -1 -38 20 -80 48 -443 289 -1036 367
-1541 203 -349 -113 -635 -305 -859 -578 -363 -441 -503 -1010 -385 -1560 193
-896 1029 -1520 1934 -1445 434 36 806 199 1119 491 664 621 772 1630 255
2386 -27 39 -49 75 -49 79 0 6 117 222 126 233 4 4 55 -42 220 -200 l92 -88
-40 -131 c-22 -73 -37 -142 -34 -154 8 -31 189 -206 214 -206 37 0 62 34 166
225 l103 190 194 106 c201 110 228 133 216 180 -4 13 -44 63 -89 112 -99 104
-95 103 -271 50 l-121 -36 -143 149 c-78 82 -141 153 -140 158 2 5 151 92 333
193 181 101 335 191 341 200 7 9 13 30 13 46 0 25 -20 50 -107 139 -59 60
-118 111 -130 114 -14 4 -183 -42 -440 -120 -230 -69 -423 -126 -429 -126 -6
0 -77 70 -157 157 -81 86 -162 166 -180 179 -64 43 -138 53 -215 29z m197
-222 c42 -43 125 -129 184 -190 59 -62 117 -115 129 -118 14 -3 194 47 448
124 l425 129 38 -36 c20 -20 36 -40 35 -44 -2 -4 -154 -91 -338 -192 -282
-155 -337 -189 -347 -214 -9 -23 -9 -34 2 -55 20 -40 406 -448 432 -458 16 -6
61 3 159 32 136 40 137 40 156 21 20 -19 19 -20 -89 -79 -59 -33 -132 -73
-161 -89 -43 -22 -59 -38 -79 -79 -64 -127 -146 -266 -156 -262 -30 10 -29 36
7 155 20 66 36 135 36 151 0 26 -16 46 -97 124 -244 233 -350 328 -370 334
-58 14 -62 9 -259 -344 -103 -186 -189 -340 -191 -343 -2 -2 -22 14 -44 36
l-40 40 125 413 c70 228 126 428 126 446 0 30 -17 49 -177 200 -98 92 -186
180 -197 196 -26 42 -14 93 34 141 33 33 43 38 86 38 46 0 50 -2 123 -77z
m-1018 -681 c225 -243 170 -496 -178 -818 -65 -60 -201 -180 -301 -267 -265
-231 -355 -336 -394 -459 -33 -108 -18 -188 53 -271 56 -65 128 -112 310 -200
140 -69 243 -136 228 -151 -19 -20 -146 -39 -259 -39 -177 0 -290 29 -459 119
-113 60 -179 108 -355 260 -260 226 -347 285 -439 300 l-39 7 7 71 c79 838
795 1499 1631 1505 l142 1 53 -58z m359 -14 c195 -62 508 -236 496 -276 -87
-283 -116 -386 -116 -409 0 -24 21 -50 113 -141 160 -157 168 -156 272 36 32
59 66 120 76 135 l16 28 44 -68 c94 -148 198 -395 214 -508 l6 -40 -88 -50
c-111 -64 -204 -155 -231 -227 -11 -29 -27 -100 -36 -158 -21 -134 -46 -208
-99 -297 -65 -109 -154 -211 -294 -335 -304 -268 -435 -426 -489 -591 -23 -69
-28 -102 -30 -212 l-2 -130 -98 -17 c-117 -21 -360 -25 -485 -8 -194 26 -335
68 -514 155 -537 262 -893 776 -944 1365 l-7 82 32 -5 c50 -8 124 -61 314
-226 279 -242 418 -332 610 -395 196 -64 426 -73 597 -23 134 39 178 82 170
169 -8 93 -93 165 -334 284 -168 83 -241 134 -266 187 -55 114 20 214 423 567
264 231 385 355 467 477 152 228 163 428 33 639 l-23 37 39 -7 c21 -4 82 -21
134 -38z m1161 -1501 c9 -119 -6 -319 -31 -444 -103 -499 -436 -931 -897
-1162 -99 -49 -214 -94 -222 -85 -16 16 -4 172 19 243 45 141 141 260 374 465
235 207 347 335 425 486 44 86 64 154 86 293 17 112 37 157 92 209 44 42 134
100 142 92 3 -3 9 -47 12 -97z"/>
<path d="M2492 4877 c-46 -48 -18 -120 50 -131 127 -21 220 -26 246 -14 41 20
58 58 43 96 -16 38 -43 49 -151 62 -132 16 -163 14 -188 -13z"/>
<path d="M2025 4874 c-103 -16 -139 -36 -143 -82 -8 -80 32 -94 198 -71 111
15 127 20 147 44 30 34 29 70 -2 100 -28 29 -61 31 -200 9z"/>
<path d="M1495 4726 c-142 -58 -165 -75 -165 -125 0 -30 42 -73 72 -73 15 0
79 21 143 48 124 52 154 79 139 127 -20 66 -69 72 -189 23z"/>
<path d="M952 4414 c-107 -80 -123 -103 -106 -153 12 -33 53 -56 85 -48 26 7
139 90 196 144 40 38 43 74 8 108 -41 42 -70 33 -183 -51z"/>
<path d="M596 4080 c-60 -53 -156 -188 -156 -219 0 -28 33 -68 60 -71 48 -7
61 3 135 95 84 106 99 134 86 168 -11 29 -29 44 -62 52 -21 5 -34 0 -63 -25z"/>
<path d="M272 3597 c-33 -35 -115 -234 -108 -262 14 -55 72 -79 114 -48 29 22
122 222 122 263 0 61 -86 92 -128 47z"/>
<path d="M4623 3148 c-43 -21 -46 -54 -18 -183 28 -132 48 -165 97 -165 33 0
78 39 78 68 0 29 -38 213 -51 243 -10 25 -47 50 -72 48 -7 0 -22 -5 -34 -11z"/>
<path d="M83 3060 c-12 -10 -24 -27 -27 -37 -11 -38 -36 -197 -36 -234 0 -53
29 -81 77 -77 53 4 69 34 93 174 25 149 25 140 -5 169 -29 30 -73 32 -102 5z"/>
<path d="M4686 2567 c-24 -18 -35 -81 -36 -209 0 -124 12 -148 75 -148 68 0
85 46 85 231 0 86 -3 102 -20 119 -23 23 -77 27 -104 7z"/>
<path d="M42 2480 c-40 -17 -47 -49 -35 -180 7 -76 16 -128 26 -144 19 -29 56
-39 91 -26 44 17 51 46 40 187 -10 119 -12 127 -38 149 -29 25 -47 28 -84 14z"/>
<path d="M4601 1964 c-12 -15 -21 -33 -21 -40 0 -8 -13 -56 -30 -107 -36 -114
-37 -121 -5 -152 30 -31 77 -33 104 -6 19 19 91 228 91 263 0 8 -9 27 -21 42
-16 20 -29 26 -59 26 -30 0 -43 -6 -59 -26z"/>
<path d="M127 1899 c-41 -24 -40 -55 4 -186 43 -130 60 -153 112 -153 32 0 77
39 77 67 0 32 -71 231 -91 257 -22 28 -68 35 -102 15z"/>
<path d="M4405 1436 c-29 -20 -145 -219 -145 -248 0 -54 78 -89 123 -55 33 25
137 210 137 244 0 61 -65 94 -115 59z"/>
<path d="M355 1355 c-39 -38 -32 -69 35 -172 65 -100 100 -133 137 -133 31 0
73 42 73 72 0 30 -112 210 -147 238 -34 27 -69 25 -98 -5z"/>
<path d="M3977 888 c-52 -51 -98 -103 -101 -115 -8 -26 16 -78 39 -87 40 -15
66 -4 138 59 82 72 127 130 127 163 0 33 -43 72 -79 72 -24 0 -48 -18 -124
-92z"/>
<path d="M716 899 c-20 -15 -26 -29 -26 -57 0 -32 8 -44 67 -101 87 -83 140
-121 170 -121 33 0 73 43 73 77 -1 35 -14 51 -122 146 -95 83 -117 91 -162 56z"/>
<path d="M3622 600 c-51 -21 -213 -122 -222 -140 -27 -50 10 -110 67 -110 39
0 236 109 253 140 17 32 11 70 -15 95 -25 26 -45 30 -83 15z"/>
<path d="M1171 534 c-26 -33 -27 -65 -3 -93 25 -31 217 -131 250 -131 63 0 96
87 50 130 -36 33 -214 120 -246 120 -21 0 -37 -8 -51 -26z"/>
<path d="M3060 344 c-25 -8 -75 -21 -111 -30 -71 -16 -93 -32 -104 -76 -6 -22
-1 -33 23 -58 17 -16 38 -30 48 -30 42 0 247 64 265 83 26 29 24 73 -6 102
-27 28 -50 30 -115 9z"/>
<path d="M1733 330 c-53 -22 -66 -88 -23 -128 19 -18 223 -73 271 -72 35 0 72
42 72 80 0 50 -27 66 -157 95 -65 15 -123 28 -130 30 -6 2 -21 0 -33 -5z"/>
<path d="M2310 237 c-37 -19 -55 -61 -40 -97 18 -43 54 -53 189 -49 110 4 121
6 145 28 34 32 34 74 1 106 -23 24 -30 25 -147 25 -79 0 -132 -5 -148 -13z"/>
</g>
</svg>
